<?xml version="1.0" encoding="UTF-8"?>
<svg version="1.1" xmlns="http://www.w3.org/2000/svg" width="96" height="96">
<path d="M0 0 C1.59764766 0.73603169 3.19894684 1.46418647 4.80371094 2.18457031 C7.1283271 3.22857098 9.44065201 4.29625076 11.75170898 5.36987305 C12.47143387 5.68777298 13.19115875 6.00567291 13.93269348 6.33320618 C15.93652344 7.28320312 15.93652344 7.28320312 19.07592773 9.2878418 C20.03369141 12.03271484 20.03369141 12.03271484 20.07592773 14.2878418 C17.43592773 14.2878418 14.79592773 14.2878418 12.07592773 14.2878418 C12.07592773 15.6078418 12.07592773 16.9278418 12.07592773 18.2878418 C11.41592773 18.2878418 10.75592773 18.2878418 10.07592773 18.2878418 C10.07592773 28.8478418 10.07592773 39.4078418 10.07592773 50.2878418 C10.73592773 50.2878418 11.39592773 50.2878418 12.07592773 50.2878418 C12.07592773 51.6078418 12.07592773 52.9278418 12.07592773 54.2878418 C13.39592773 54.2878418 14.71592773 54.2878418 16.07592773 54.2878418 C16.07592773 56.2678418 16.07592773 58.2478418 16.07592773 60.2878418 C17.39592773 60.2878418 18.71592773 60.2878418 20.07592773 60.2878418 C20.07592773 62.2678418 20.07592773 64.2478418 20.07592773 66.2878418 C-6.32407227 66.2878418 -32.72407227 66.2878418 -59.92407227 66.2878418 C-59.92407227 64.3078418 -59.92407227 62.3278418 -59.92407227 60.2878418 C-58.60407227 60.2878418 -57.28407227 60.2878418 -55.92407227 60.2878418 C-55.92407227 58.3078418 -55.92407227 56.3278418 -55.92407227 54.2878418 C-54.60407227 54.2878418 -53.28407227 54.2878418 -51.92407227 54.2878418 C-51.92407227 52.9678418 -51.92407227 51.6478418 -51.92407227 50.2878418 C-51.26407227 50.2878418 -50.60407227 50.2878418 -49.92407227 50.2878418 C-49.92407227 39.7278418 -49.92407227 29.1678418 -49.92407227 18.2878418 C-50.58407227 18.2878418 -51.24407227 18.2878418 -51.92407227 18.2878418 C-51.92407227 16.9678418 -51.92407227 15.6478418 -51.92407227 14.2878418 C-54.56407227 14.2878418 -57.20407227 14.2878418 -59.92407227 14.2878418 C-59.77514648 11.98510742 -59.77514648 11.98510742 -58.92407227 9.2878418 C-56.5065918 7.60620117 -56.5065918 7.60620117 -53.30688477 6.1315918 C-52.14157227 5.58374023 -50.97625977 5.03588867 -49.77563477 4.47143555 C-48.53363317 3.90982631 -47.29144462 3.34863036 -46.04907227 2.7878418 C-44.85797852 2.23225586 -43.66688477 1.67666992 -42.43969727 1.10424805 C-40.07410377 0.00427295 -37.70202889 -1.08187742 -35.32348633 -2.15356445 C-33.128154 -3.16010005 -30.9507583 -4.20717699 -28.7980957 -5.30200195 C-27.84708984 -5.77766602 -26.89608398 -6.25333008 -25.91625977 -6.7434082 C-25.0923877 -7.17202148 -24.26851562 -7.60063477 -23.41967773 -8.04223633 C-16.52965972 -9.89179702 -6.28271137 -2.91026371 0 0 Z " fill="#0C66AE" transform="translate(67.924072265625,17.712158203125)"/>
<path d="M0 0 C1.59764766 0.73603169 3.19894684 1.46418647 4.80371094 2.18457031 C7.1283271 3.22857098 9.44065201 4.29625076 11.75170898 5.36987305 C12.47143387 5.68777298 13.19115875 6.00567291 13.93269348 6.33320618 C15.93652344 7.28320312 15.93652344 7.28320312 19.07592773 9.2878418 C19.57092773 11.7628418 19.57092773 11.7628418 20.07592773 14.2878418 C-6.32407227 14.2878418 -32.72407227 14.2878418 -59.92407227 14.2878418 C-58.92407227 9.2878418 -58.92407227 9.2878418 -56.5065918 7.60620117 C-55.45068848 7.11958008 -54.39478516 6.63295898 -53.30688477 6.1315918 C-52.14157227 5.58374023 -50.97625977 5.03588867 -49.77563477 4.47143555 C-48.53363317 3.90982631 -47.29144462 3.34863036 -46.04907227 2.7878418 C-44.85797852 2.23225586 -43.66688477 1.67666992 -42.43969727 1.10424805 C-40.07410377 0.00427295 -37.70202889 -1.08187742 -35.32348633 -2.15356445 C-33.128154 -3.16010005 -30.9507583 -4.20717699 -28.7980957 -5.30200195 C-27.84708984 -5.77766602 -26.89608398 -6.25333008 -25.91625977 -6.7434082 C-25.0923877 -7.17202148 -24.26851562 -7.60063477 -23.41967773 -8.04223633 C-16.52965972 -9.89179702 -6.28271137 -2.91026371 0 0 Z " fill="#28B0EA" transform="translate(67.924072265625,17.712158203125)"/>
<path d="M0 0 C8.58 0 17.16 0 26 0 C26 1.32 26 2.64 26 4 C25.34 4 24.68 4 24 4 C24 14.56 24 25.12 24 36 C24.66 36 25.32 36 26 36 C26 37.32 26 38.64 26 40 C17.42 40 8.84 40 0 40 C-2.16523818 35.66952365 -2.25731315 33.51862741 -2.265625 28.75 C-2.26753845 28.05487305 -2.2694519 27.35974609 -2.27142334 26.64355469 C-2.27278089 25.17773068 -2.26911451 23.71189448 -2.26074219 22.24609375 C-2.25003605 20.00753674 -2.26065151 17.76978217 -2.2734375 15.53125 C-2.27211583 14.1041649 -2.26955328 12.6770803 -2.265625 11.25 C-2.26336914 9.95578125 -2.26111328 8.6615625 -2.25878906 7.328125 C-2 4 -2 4 0 0 Z " fill="#0B65AE" transform="translate(54,32)"/>
<path d="M0 0 C23.76 0 47.52 0 72 0 C72 1.98 72 3.96 72 6 C73.32 6 74.64 6 76 6 C76 7.98 76 9.96 76 12 C49.6 12 23.2 12 -4 12 C-4 10.02 -4 8.04 -4 6 C-2.68 6 -1.36 6 0 6 C0 4.02 0 2.04 0 0 Z " fill="#3ECEF6" transform="translate(12,72)"/>
<path d="M0 0 C0.89025879 0.49749756 1.78051758 0.99499512 2.69775391 1.50756836 C3.67099609 2.04575195 4.64423828 2.58393555 5.64697266 3.13842773 C6.64599609 3.70239258 7.64501953 4.26635742 8.67431641 4.84741211 C9.69654297 5.41524414 10.71876953 5.98307617 11.77197266 6.56811523 C14.2855998 7.96587986 16.79438668 9.37163851 19.29931641 10.78491211 C19.29931641 11.11491211 19.29931641 11.44491211 19.29931641 11.78491211 C2.13931641 11.78491211 -15.02068359 11.78491211 -32.70068359 11.78491211 C-28.74078872 7.82501724 -24.3052375 5.64532362 -19.38818359 3.03491211 C-18.45039062 2.51541992 -17.51259766 1.99592773 -16.54638672 1.46069336 C-15.63179687 0.9747168 -14.71720703 0.48874023 -13.77490234 -0.01196289 C-12.94563232 -0.45894531 -12.1163623 -0.90592773 -11.26196289 -1.36645508 C-7.05938205 -2.75890298 -3.95131134 -1.77776863 0 0 Z " fill="#39C6F2" transform="translate(54.70068359375,16.215087890625)"/>
<path d="M0 0 C3.96 0 7.92 0 12 0 C12 0.99 12 1.98 12 3 C11.34 3 10.68 3 10 3 C10 13.56 10 24.12 10 35 C10.66 35 11.32 35 12 35 C12 35.99 12 36.98 12 38 C8.04 38 4.08 38 0 38 C0.33 37.01 0.66 36.02 1 35 C1.09590318 32.60567758 1.1307427 30.20874143 1.1328125 27.8125 C1.13376923 27.11358643 1.13472595 26.41467285 1.13571167 25.69458008 C1.13639141 24.21858632 1.13455145 22.74258955 1.13037109 21.26660156 C1.12501989 19.00839519 1.13032298 16.7503877 1.13671875 14.4921875 C1.13605793 13.05729123 1.13477669 11.62239508 1.1328125 10.1875 C1.13168457 8.88167969 1.13055664 7.57585938 1.12939453 6.23046875 C1.14930356 2.98456753 1.14930356 2.98456753 0 0 Z " fill="#29B0E9" transform="translate(68,33)"/>
<path d="M0 0 C3.96 0 7.92 0 12 0 C11.67 0.99 11.34 1.98 11 3 C10.90409682 5.39432242 10.8692573 7.79125857 10.8671875 10.1875 C10.86623077 10.88641357 10.86527405 11.58532715 10.86428833 12.30541992 C10.86360859 13.78141368 10.86544855 15.25741045 10.86962891 16.73339844 C10.87498011 18.99160481 10.86967702 21.2496123 10.86328125 23.5078125 C10.86394207 24.94270877 10.86522331 26.37760492 10.8671875 27.8125 C10.86831543 29.11832031 10.86944336 30.42414062 10.87060547 31.76953125 C10.85069644 35.01543247 10.85069644 35.01543247 12 38 C8.04 38 4.08 38 0 38 C0 37.01 0 36.02 0 35 C0.66 35 1.32 35 2 35 C2 24.44 2 13.88 2 3 C1.34 3 0.68 3 0 3 C0 2.01 0 1.02 0 0 Z " fill="#29B0E9" transform="translate(16,33)"/>
<path d="M0 0 C3.96 0 7.92 0 12 0 C11.67 0.99 11.34 1.98 11 3 C10.90409682 5.39432242 10.8692573 7.79125857 10.8671875 10.1875 C10.86623077 10.88641357 10.86527405 11.58532715 10.86428833 12.30541992 C10.86360859 13.78141368 10.86544855 15.25741045 10.86962891 16.73339844 C10.87498011 18.99160481 10.86967702 21.2496123 10.86328125 23.5078125 C10.86394207 24.94270877 10.86522331 26.37760492 10.8671875 27.8125 C10.86831543 29.11832031 10.86944336 30.42414062 10.87060547 31.76953125 C10.85069644 35.01543247 10.85069644 35.01543247 12 38 C8.04 38 4.08 38 0 38 C0.33 37.01 0.66 36.02 1 35 C1.09590318 32.60567758 1.1307427 30.20874143 1.1328125 27.8125 C1.13376923 27.11358643 1.13472595 26.41467285 1.13571167 25.69458008 C1.13639141 24.21858632 1.13455145 22.74258955 1.13037109 21.26660156 C1.12501989 19.00839519 1.13032298 16.7503877 1.13671875 14.4921875 C1.13605793 13.05729123 1.13477669 11.62239508 1.1328125 10.1875 C1.13168457 8.88167969 1.13055664 7.57585938 1.12939453 6.23046875 C1.14930356 2.98456753 1.14930356 2.98456753 0 0 Z " fill="#29B0E8" transform="translate(42,33)"/>
<path d="M0 0 C2.625 0.375 2.625 0.375 5 1 C5.625 3.375 5.625 3.375 6 6 C5.34 6.66 4.68 7.32 4 8 C1.375 7.625 1.375 7.625 -1 7 C-1.625 4.625 -1.625 4.625 -2 2 C-1.34 1.34 -0.68 0.68 0 0 Z " fill="#0B72C0" transform="translate(46,18)"/>
<path d="M0 0 C1.67542976 0.28604898 3.34385343 0.61781233 5 1 C5 1.99 5 2.98 5 4 C2.69 4.33 0.38 4.66 -2 5 C-1.125 1.125 -1.125 1.125 0 0 Z " fill="#1263A4" transform="translate(46,18)"/>
</svg>
